<?xml version="1.0" encoding="UTF-8"?>
<svg width="470px" height="406px" viewBox="0 0 470 406" version="1.1" xmlns="http://www.w3.org/2000/svg" xmlns:xlink="http://www.w3.org/1999/xlink">
    <!-- Generator: Sketch 50 (54983) - http://www.bohemiancoding.com/sketch -->
    <title>workspace-illustrations-outlane</title>
    <desc>Created with Sketch.</desc>
    <defs></defs>
    <g id="Page-1" stroke="none" stroke-width="1" fill="none" fill-rule="evenodd">
        <g id="workspace-2" transform="translate(2.000000, 1.000000)">
            <g id="window_1_" transform="translate(125.000000, 0.000000)">
                <g id="color_1_" fill="#FCFCFC" fill-rule="nonzero">
                    <g id="XMLID_3_">
                        <g id="Group">
                            <polygon id="Shape" points="220.1 216.4 220.1 227.2 0.1 227.2 0.1 216.4 4.4 216.4 107.9 216.4 112.2 216.4 215.8 216.4"></polygon>
                            <path d="M215.8,0.7 L215.8,216.4 L112.2,216.4 L112.2,0.7 L215.8,0.7 Z M207.1,207.8 L207.1,111.8 L207.1,9.3 L120.8,9.3 L120.8,111.8 L120.8,207.8 L207.1,207.8 Z" id="Shape"></path>
                            <polygon id="Shape" points="207.1 111.8 207.1 207.8 120.9 207.8 120.9 111.8 127.3 111.8 127.3 201.3 160.8 201.3 160.8 111.8 167.2 111.8 167.2 201.3 200.7 201.3 200.7 111.8"></polygon>
                            <path d="M207.1,9.3 L207.1,111.8 L200.6,111.8 L167.2,111.8 L160.7,111.8 L127.3,111.8 L120.8,111.8 L120.8,9.3 L207.1,9.3 Z M200.7,105.3 L200.7,15.8 L167.3,15.8 L167.3,105.3 L200.7,105.3 Z M160.8,105.3 L160.8,15.8 L127.4,15.8 L127.4,105.3 L160.8,105.3 Z" id="Shape"></path>
                            <polygon id="Shape" points="112.2 0.7 112.2 216.4 107.9 216.4 107.9 0.7"></polygon>
                            <path d="M107.9,0.7 L107.9,216.4 L4.4,216.4 L4.4,0.7 L107.9,0.7 Z M99.3,207.8 L99.3,111.8 L99.3,9.3 L13,9.3 L13,111.8 L13,207.8 L99.3,207.8 Z" id="Shape"></path>
                            <polygon id="Shape" points="99.3 111.8 99.3 207.8 13 207.8 13 111.8 19.5 111.8 19.5 201.3 52.9 201.3 52.9 111.8 59.4 111.8 59.4 201.3 92.8 201.3 92.8 111.8"></polygon>
                            <path d="M99.3,9.3 L99.3,111.8 L92.8,111.8 L59.4,111.8 L52.9,111.8 L19.5,111.8 L13,111.8 L13,9.3 L99.3,9.3 Z M92.8,105.3 L92.8,15.8 L59.4,15.8 L59.4,105.3 L92.8,105.3 Z M52.9,105.3 L52.9,15.8 L19.5,15.8 L19.5,105.3 L52.9,105.3 Z" id="Shape"></path>
                        </g>
                    </g>
                </g>
                <g id="lines_1_" stroke="#EFEFEF" stroke-linecap="round" stroke-linejoin="round" stroke-width="3">
                    <rect id="Rectangle-path" x="0.1" y="216.4" width="220" height="10.8"></rect>
                    <polyline id="Shape" points="215.8 0.7 215.8 216.4 4.4 216.4 4.4 0.7 215.8 0.7"></polyline>
                    <path d="M113.2,0.7 L113.2,216.4" id="Shape"></path>
                    <path d="M106.9,216.4 L106.9,0.7" id="Shape"></path>
                    <rect id="Rectangle-path" x="13" y="9.3" width="86.3" height="198.4"></rect>
                    <path d="M92.8,105.3 L59.4,105.3" id="Shape"></path>
                    <path d="M52.9,105.3 L19.5,105.3" id="Shape"></path>
                    <path d="M13,111.8 L99.3,111.8" id="Shape"></path>
                    <path d="M52.9,201.3 L52.9,111.8" id="Shape"></path>
                    <path d="M52.9,105.3 L52.9,15.8" id="Shape"></path>
                    <path d="M59.4,201.3 L59.4,111.8" id="Shape"></path>
                    <path d="M59.4,105.3 L59.4,15.8" id="Shape"></path>
                    <polyline id="Shape" points="59.4 15.8 92.8 15.8 92.8 105.3"></polyline>
                    <polyline id="Shape" points="19.5 105.3 19.5 15.8 52.9 15.8"></polyline>
                    <polyline id="Shape" points="19.5 111.8 19.5 201.3 52.9 201.3"></polyline>
                    <polyline id="Shape" points="92.8 111.8 92.8 201.3 59.4 201.3"></polyline>
                    <rect id="Rectangle-path" x="120.9" y="9.3" width="86.3" height="198.4"></rect>
                    <path d="M200.7,105.3 L167.2,105.3" id="Shape"></path>
                    <path d="M160.8,105.3 L127.3,105.3" id="Shape"></path>
                    <path d="M120.9,111.8 L207.1,111.8" id="Shape"></path>
                    <path d="M160.8,201.3 L160.8,111.8" id="Shape"></path>
                    <path d="M160.8,105.3 L160.8,15.8" id="Shape"></path>
                    <path d="M167.2,201.3 L167.2,111.8" id="Shape"></path>
                    <path d="M167.2,105.3 L167.2,15.8" id="Shape"></path>
                    <polyline id="Shape" points="167.2 15.8 200.7 15.8 200.7 105.3"></polyline>
                    <polyline id="Shape" points="127.3 105.3 127.3 15.8 160.8 15.8"></polyline>
                    <polyline id="Shape" points="127.3 111.8 127.3 201.3 160.8 201.3"></polyline>
                    <polyline id="Shape" points="200.7 111.8 200.7 201.3 167.2 201.3"></polyline>
                </g>
            </g>
            <g id="bush" transform="translate(366.000000, 173.000000)">
                <g id="color_4_" transform="translate(3.000000, 3.000000)" fill="#F7F7F7" fill-rule="nonzero">
                    <g id="XMLID_31_">
                        <g id="Group">
                            <path d="M86.5,118.9 L86.5,119 C65.4,123.5 55.7,157 46.2,171.3 L41.9,171.3 C44.8,165.3 46.5,158.3 47.6,150.6 C49.1,146.5 50.9,142.9 53,139.7 C61.7,126.2 74.8,120.2 86.5,118.9 Z" id="Shape"></path>
                            <polygon id="Shape" points="72.9 171.4 72.9 180.3 69.9 180.3 4.2 180.3 1.2 180.3 1.2 171.4 29.2 171.4 33.9 171.4 37 171.4 41.9 171.4 46.2 171.4"></polygon>
                            <path d="M72.8,69.9 L72.9,70 C63.7,83.2 51.1,116.7 53,139.8 C50.9,143 49.1,146.6 47.6,150.7 C48.6,143.3 49,135.3 49.3,126.6 L49.5,126.6 C51,102.1 64.4,80 72.8,69.9 Z" id="Shape"></path>
                            <polygon id="Shape" points="69.9 180.3 63.3 219.8 10.7 219.8 4.2 180.3"></polygon>
                            <polygon id="Shape" points="63.3 219.8 62.4 225.2 11.6 225.2 10.7 219.8"></polygon>
                            <path d="M37,100.6 C39.6,68.8 58,33.1 66.6,20.3 C49.5,59.4 50.2,96.5 49.3,126.6 C49,135.2 48.6,143.3 47.6,150.7 C46.5,158.4 44.8,165.4 41.9,171.4 L37,171.4 C38.3,160 39,131.7 37,100.6 C37,100.7 37,100.7 37,100.6 Z" id="Shape"></path>
                            <path d="M37,100.7 C39,131.7 38.3,160 37,171.4 L33.9,171.4 C28,158 26,134.2 24.7,108.3 C24.7,108.3 24.7,108.2 24.7,108.2 C22.6,66.8 22.6,19.8 12.6,-5.68434189e-14 C27.8,19.9 34.5,62.4 37,100.7 C37,100.7 37,100.7 37,100.7 Z" id="Shape"></path>
                            <path d="M33.9,171.4 L29.2,171.4 C1.2,139.3 27.2,94.4 0.2,27.5 C12.8,45.3 22,76.7 24.7,108.1 C24.7,108.1 24.7,108.2 24.7,108.2 C26,134.2 28.1,158 33.9,171.4 Z" id="Shape"></path>
                        </g>
                    </g>
                </g>
                <g id="shadow_1_" transform="translate(4.000000, 2.000000)" fill-rule="nonzero">
                    <g id="Group" transform="translate(3.000000, 83.000000)" fill="#EFEFEF">
                        <rect id="Rectangle-path" x="0.7" y="98.4" width="64.5" height="4.3"></rect>
                        <path d="M59.4,6.3 L60.7,0.4 C54,8.6 46.7,29.5 45.4,40.4 L44.7,65.3 L49.5,57 C45.7,41.4 59.4,6.3 59.4,6.3 Z" id="Shape"></path>
                        <path d="M29.7,89.5 C28.3,86.4 26.8,80.2 25.6,74.8 C27.5,82.6 29.7,89.5 29.7,89.5 L32.9,89.5 C34.2,85 34.2,57.3 34.2,57.3 C31.6,75.9 23.9,64.5 22.9,57.3 C22.8,59.5 23.2,62.4 23.7,65.6 C20.8,78.6 13.7,67.1 11.2,47.2 C9.8,73.7 25.1,89.4 25.1,89.4 L29.7,89.4 L29.7,89.5 Z" id="Shape"></path>
                        <path d="M37.3,89.5 L42.1,89.4 L52,71 C49.5,75.9 44.1,77 42.1,76 C43.5,69.4 43.5,64.1 43.5,64.1 C42.7,72.8 35.1,76.4 34.3,71.6 L34.2,89.5 L37.3,89.5 Z" id="Shape"></path>
                    </g>
                    <g id="Group" fill="#FFFFFF">
                        <polygon id="Shape" points="0.2 175.5 8.5 175.5 8.5 181 28.5 181.4 28.4 175.5 71.9 175.5 71.9 172.4 0.2 172.4"></polygon>
                        <polygon id="Shape" points="17.6 226.2 31.3 226.2 30.4 181.4 28.5 181.4 10.6 181.4"></polygon>
                        <path d="M13.1,110.5 L14,136.2 C15.7,131.8 15.5,111.5 18.6,110.5 C21.4,109.6 24.1,120.7 24.1,120.7 L22,95.2 C16.4,116.3 12.4,87.8 11.3,78.4 L12.9,98.4 L13.1,110.5 Z" id="Shape"></path>
                        <path d="M32.7,63.9 C24.9,15.6 11.4,0.6 11.4,0.6 C22.4,20.7 24.1,112.9 24.1,112.9 C29.5,82.9 24.9,50 32.7,63.9 Z" id="Shape"></path>
                        <path d="M60.9,30.2 C55.9,35.6 31.9,85.7 36.5,110.6 C41.1,135.5 34.6,83.8 60.9,30.2 Z" id="Shape"></path>
                        <path d="M46.6,156.2 C48.6,150.6 62.2,126.2 68,132.2 L80.8002453,120.7 C80.9,120.7 50.4,127.4 46.6,156.2 Z" id="Shape"></path>
                    </g>
                </g>
                <g id="lines_8_" stroke="#E8E8E8" stroke-linecap="round" stroke-linejoin="round">
                    <g id="Group" transform="translate(3.000000, 5.000000)" stroke-width="1.5">
                        <path d="M0.2,25.5 C29.2,78.4 9.9,137.8 31.7,169.4" id="Shape"></path>
                        <path d="M86.5,117.1 C55.6,126.4 59.2,143.2 43,169.4" id="Shape"></path>
                        <path d="M35.5,169.4 C32.3,153.1 31.6,32.5 14.7,0.9" id="Shape"></path>
                        <path d="M39.5,169.4 C54.2,122.5 32.5,87.9 64.6,21.5" id="Shape"></path>
                        <path d="M34.2,155.7 C33.8,149 38.3,134.9 38.3,134.9" id="Shape"></path>
                        <path d="M33.2,138.7 C32.7,129.7 25.7,123 25.7,123" id="Shape"></path>
                        <path d="M32.3,123 C32,117.6 37.4,106.2 37.4,106.2" id="Shape"></path>
                        <path d="M31.4,107.5 C31,100.9 24.1,92.4 24.1,92.4" id="Shape"></path>
                        <path d="M30.2,89.8 C29.7,82.9 34.9,74.6 34.9,74.6" id="Shape"></path>
                        <path d="M28.9,74.6 C28.3,68.5 22.9,65 22.9,65" id="Shape"></path>
                        <path d="M34.6,161.5 C34.2,156.8 28.5,148.7 28.5,148.7" id="Shape"></path>
                        <path d="M27.7,62.3 C26.9,56.4 30.4,45.8 30.4,45.8" id="Shape"></path>
                        <path d="M25.7,44.6 C24.9,40.3 20.8,35.3 20.8,35.3" id="Shape"></path>
                        <path d="M24.3,153.2 C22.7,146.6 26.9,136.1 26.9,136.1" id="Shape"></path>
                        <path d="M22,143.2 C21.1,136.9 15.1,131.4 15.1,131.4" id="Shape"></path>
                        <path d="M26.9,160.5 C25.3,156.2 20.3,155 20.3,155" id="Shape"></path>
                        <path d="M19.9,125.4 C19.6,121.5 24.1,111.2 24.9,109.9" id="Shape"></path>
                        <path d="M19,110.7 C18.7,105.3 14.2,101.3 14.2,101.3" id="Shape"></path>
                        <path d="M17.9,93.9 C17.6,89.8 21.4,82.2 21.4,82.2" id="Shape"></path>
                        <path d="M16.5,80.4 C16,76.3 12.3,73.4 12.3,73.4" id="Shape"></path>
                        <path d="M15.1,70.5 C14.4,66.4 16.5,62.3 16.5,62.3" id="Shape"></path>
                        <path d="M41.7,161.5 C42.8,156.3 38.2,146.7 38.2,146.7" id="Shape"></path>
                        <path d="M43.8,150 C44.3,145.9 48.5,139.8 48.5,139.8" id="Shape"></path>
                        <path d="M45.1,137.4 C45.3,133 40.1,124.2 38.2,123.1" id="Shape"></path>
                        <path d="M45.4,125.4 C45.4,121.5 49.4,114.6 49.4,114.6" id="Shape"></path>
                        <path d="M45.4,113.9 C45.5,108.9 39,98.8 37.1,97.5" id="Shape"></path>
                        <path d="M45.4,102.1 C45.7,97.1 50.4,90.7 50.4,90.7" id="Shape"></path>
                        <path d="M46,90.7 C46.4,85.7 43.4,77.3 41.3,75.4" id="Shape"></path>
                        <path d="M47.2,78.6 C47.6,75.6 51.4,69.9 52.6,69.8" id="Shape"></path>
                        <path d="M49.1,66.4 C49.7,63.7 49.3,56.1 47.9,55.4" id="Shape"></path>
                        <path d="M52.5,52.6 C53,50.8 56.3,49.2 56.3,49.2" id="Shape"></path>
                        <path d="M46.9,162.5 C47.8,160.7 52.5,157.8 52.5,157.8" id="Shape"></path>
                        <path d="M50.6,155.1 C51.6,152.8 52.1,143.6 50.6,141.8" id="Shape"></path>
                        <path d="M54.4,146.7 C55.5,144.2 60.3,141.5 60.9,141.4" id="Shape"></path>
                        <path d="M59,137.4 C59.8,136 60.1,129.2 60.1,129.2" id="Shape"></path>
                        <path d="M63.4,130.9 C64.6,129.6 69.9,128.2 69.9,128.2" id="Shape"></path>
                    </g>
                    <path d="M40,174.4 C42.9,148.3 43.1,33.2 13.3,0.1" id="Shape" stroke-width="3"></path>
                    <path d="M15.6,2.9 C31.9,35.1 21.8,139.5 37,174.4" id="Shape" stroke-width="3"></path>
                    <path d="M44.9,174.4 C60.2,142.7 42.4,85.5 69.6,23.3" id="Shape" stroke-width="3"></path>
                    <path d="M3.2,30.5 C30.2,97.4 4.2,142.3 32.2,174.4" id="Shape" stroke-width="3"></path>
                    <path d="M49.2,174.4 C58.7,160.1 68.5,126.6 89.5,122.1" id="Shape" stroke-width="3"></path>
                    <path d="M99.7,122.1 C83.8,119.9 60.5,127 50.6,153.7" id="Shape" stroke-width="3"></path>
                    <path d="M75.9,73 C66.7,86.2 54.1,119.7 56,142.8" id="Shape" stroke-width="3"></path>
                    <path d="M5.7,228.2 L69.9,228.2" id="Shape" stroke-width="3"></path>
                    <rect id="Rectangle-path" stroke-width="3" x="4.2" y="174.4" width="71.7" height="9"></rect>
                    <path d="M72.9,183.4 L65.4,228.2" id="Shape" stroke-width="3"></path>
                    <path d="M7.2,183.4 L14.6,228.2" id="Shape" stroke-width="3"></path>
                    <path d="M40,103.7 C43,66.8 67.2,24.6 72.9,19" id="Shape" stroke-width="3"></path>
                    <path d="M27.7,111.3 C24.7,77.3 14.3,43.3 0.1,26.5" id="Shape" stroke-width="3"></path>
                    <path d="M79.5,68.9 C72.2,75.8 54.3,101 52.5,129.6" id="Shape" stroke-width="3"></path>
                    <path d="M80.8,228.2 L76.4,228.2" id="Shape" stroke-width="3"></path>
                    <path d="M13.7,222.8 L66.3,222.8" id="Shape" stroke-width="1.5"></path>
                </g>
            </g>
            <g id="table_1_" transform="translate(74.000000, 189.000000)">
                <g id="color" fill-rule="nonzero">
                    <g id="XMLID_4_">
                        <g id="Group">
                            <polygon id="Shape" fill="#775B44" points="320.4 99 320.4 109 252.6 109 237.4 109 83.4 109 68.2 109 0.4 109 0.4 99"></polygon>
                            <path d="M281.7,80 L281.7,82 C281.7,82.1 281.7,82.3 281.7,82.4 C281.6,86.8 279.6,90.7 276.5,93.3 C275.8,93.9 275,94.5 274.2,94.9 L274.2,96.9 L259.2,96.9 L259.2,94.9 C254.7,92.3 251.7,87.5 251.7,81.9 L251.7,79.9 L281.7,79.9 L281.7,80 Z" id="Shape" fill="#DE5B5D"></path>
                            <path d="M258.9,212.4 L247,212.4 C247,212.4 219.9,164.5 219.4,150.7 L219.4,150.1 C219.6,142.1 228.5,124.7 237.3,109 L252.5,109 C244.8,125.1 236.7,143.7 236.7,150.4 C236.8,162.6 253.9,203.1 258.9,212.4 Z" id="Shape" fill="#775B44"></path>
                            <path d="M240.9,90.9 L240.9,94.3 C240.9,94.3 239.4,98.9 226,98.9 L95.8,98.9 C82.4,98.9 80.9,94.3 80.9,94.3 L80.9,90.9 L93.3,90.9 L229.3,90.9 L240.9,90.9 Z" id="Shape" fill="#DDDDDD"></path>
                            <path d="M229.3,5.2 L229.3,91 L93.3,91 L93.3,5.2 C93.3,2.8 95.2,1 97.5,1 L225,1 C227.4,0.9 229.3,2.8 229.3,5.2 Z M221.3,82.9 L221.3,8.9 L101.3,8.9 L101.3,82.9 L221.3,82.9 Z" id="Shape" fill="#DDDDDD"></path>
                            <rect id="Rectangle-path" fill="#444444" x="101.3" y="8.9" width="120" height="74"></rect>
                            <path d="M219.5,150.7 L219.5,154.3 L101.3,154.3 L101.3,150.3 L101.3,144.3 L219.5,144.3 L219.5,150.1 C219.5,150.2 219.5,150.3 219.5,150.4 C219.5,150.5 219.5,150.6 219.5,150.7 Z" id="Shape" fill="#775B44"></path>
                            <polygon id="Shape" fill="#DDDDDD" points="195 139.2 195 144.2 131 144.2 131 139.2 189 139.2"></polygon>
                            <path d="M192.9,129.3 L192.7,134 L189,133.8 L128.8,130.7 L129,126.7 C129,126.7 129.1,126.7 129.1,126.7 C131.2,126.8 156.9,128.3 175.2,129 C175.3,129 175.4,129 175.5,129 C184,129.4 190.9,129.5 192.9,129.3 Z" id="Shape" fill="#DDDDDD"></path>
                            <path d="M189,133.9 L189,134.2 C189,134.2 180.3,134.2 169.4,134.2 C169.4,134.2 142.7,133.3 132.5,132.7 C123.7,132.2 124.8,122.9 129.2,123.4 C131.5,123.6 132.1,126.8 129.2,126.8 C129.2,126.8 129.1,126.8 129.1,126.8 L128.9,130.8 L189,133.9 Z" id="Shape" fill="#DDDDDD"></path>
                            <path d="M189,134.2 L189,139.2 L131,139.2 L125,139.2 L125,133.8 C126.5,134.2 151.1,134.2 169.4,134.2 C180.3,134.2 189,134.2 189,134.2 Z" id="Shape" fill="#DDDDDD"></path>
                            <path d="M83.4,109 C92.3,124.9 101.3,142.4 101.3,150.4 C101.3,163.8 73.7,212.4 73.7,212.4 L62,212.4 C66.9,203 84,162.6 84,150.4 C84,143.7 75.9,125.1 68.2,109 L83.4,109 Z" id="Shape" fill="#775B44"></path>
                        </g>
                    </g>
                </g>
                <g id="shadows_1_" fill-rule="nonzero">
                    <rect id="Rectangle-path" fill="#FFFFFF" opacity="0.5" x="251.7" y="80" width="29.8" height="4.4"></rect>
                    <rect id="Rectangle-path" fill="#FFFFFF" x="93.3" y="0" width="136" height="5.2"></rect>
                    <rect id="Rectangle-path" fill="#FFFFFF" x="225.2" y="2.6" width="4.1" height="87.4"></rect>
                    <polygon id="Shape" fill="#000000" opacity="0.25" points="221.3 8.9 220.8 8.9 220.8 8.9 218 8.9 218 8.9 102.5 8.9 102.5 12.3 218 12.3 218 82.2 220.8 82.2 220.8 12.3 221.3 12.3"></polygon>
                    <rect id="Rectangle-path" fill="#FFFFFF" x="80.4" y="91.5" width="160" height="3.4"></rect>
                    <rect id="Rectangle-path" fill="#000000" opacity="0.25" x="69.5" y="110.2" width="16" height="6"></rect>
                    <rect id="Rectangle-path" fill="#000000" opacity="0.25" x="235" y="109.9" width="16" height="6"></rect>
                    <rect id="Rectangle-path" fill="#FFFFFF" opacity="0.25" x="0.4" y="99.5" width="321.2" height="3.9"></rect>
                    <rect id="Rectangle-path" fill="#000000" opacity="0.25" x="125" y="133.8" width="64" height="5.4"></rect>
                    <rect id="Rectangle-path" fill="#FFFFFF" opacity="0.25" x="101.3" y="143.5" width="118.2" height="5.2"></rect>
                    <path d="M67.8,196.8 C69.3,205 81.5,200 88.9,183.7 C80.3,202.8 73.8,212.4 73.8,212.4 L62,212.4 L67.8,196.8 Z" id="Shape" fill="#000000" opacity="0.25"></path>
                    <path d="M253.1,196.8 C251.6,205 239.4,200 232,183.7 C240.6,202.8 247.1,212.4 247.1,212.4 L258.9,212.4 L253.1,196.8 Z" id="Shape" fill="#000000" opacity="0.25"></path>
                    <polygon id="Shape" fill="#FFFFFF" opacity="0.15" points="143.5 12.3 100.8 55 100.8 66 154.5 12.3"></polygon>
                    <polygon id="Shape" fill="#FFFFFF" opacity="0.15" points="101.3 73.7 162.9 12.1 208.3 12.1 136.3 84.1 101.3 84.1"></polygon>
                </g>
                <g id="lines" stroke="#333333" stroke-linecap="round" stroke-linejoin="round">
                    <g id="Group" transform="translate(80.000000, 0.000000)" stroke-width="4">
                        <path d="M13.3,90.9 L13.3,5.1 C13.3,2.8 15.2,0.9 17.5,0.9 L145,0.9 C147.3,0.9 149.2,2.8 149.2,5.1 L149.2,90.9" id="Shape"></path>
                        <rect id="Rectangle-path" x="21.3" y="8.9" width="120" height="74"></rect>
                        <path d="M15.8,98.9 C2.4,98.9 0.9,94.3 0.9,94.3 L0.9,90.9 L160.9,90.9 L160.9,94.3 C160.9,94.3 159.4,98.9 146,98.9 L15.8,98.9" id="Shape"></path>
                    </g>
                    <g id="Group" transform="translate(0.000000, 99.000000)" stroke-width="4">
                        <rect id="Rectangle-path" x="0.4" y="0" width="320" height="10"></rect>
                        <path d="M252.6,10 C244.9,26.1 236.8,44.7 236.8,51.4 C236.8,63.6 253.9,104.1 258.9,113.4" id="Shape"></path>
                        <path d="M237.4,10 C228.5,25.9 219.5,43.4 219.5,51.4 C219.5,64.8 247.1,113.4 247.1,113.4" id="Shape"></path>
                        <rect id="Rectangle-path" x="101.3" y="45.4" width="118.2" height="10"></rect>
                        <path d="M68.2,10 C75.9,26.1 84,44.7 84,51.4 C84,63.6 66.9,104.1 62,113.4" id="Shape"></path>
                        <path d="M83.4,10 C92.3,25.9 101.3,43.4 101.3,51.4 C101.3,64.8 73.7,113.4 73.7,113.4" id="Shape"></path>
                        <path d="M0.9,113.4 L339.9,113.4" id="Shape"></path>
                    </g>
                    <g id="Group" transform="translate(251.000000, 47.000000)">
                        <path d="M24.2,8.4 C24.2,8.6 24.2,8.8 24.2,9 C24.2,13 21.4,16.4 17.7,17.4" id="Shape" stroke-width="2" opacity="0.5"></path>
                        <path d="M19.3,1.1 C18.2,0.5 16.9,0.2 15.5,0.2" id="Shape" stroke-width="2" opacity="0.5"></path>
                        <path d="M22.7,4.1 C22.7,4.1 22.6,4 22.6,4" id="Shape" stroke-width="2" opacity="0.5"></path>
                        <path d="M11,21.9 C10.5,22.6 10.2,23.4 10.2,24.3 C10.2,25.9 11.1,27.3 12.5,27.9" id="Shape" stroke-width="2" opacity="0.5"></path>
                        <path d="M30.7,35 C30.7,40.6 27.7,45.4 23.2,48 L23.2,50 L8.2,50 L8.2,48 C3.7,45.4 0.7,40.6 0.7,35 L0.7,33 L30.7,33 L30.7,35 Z" id="Shape" stroke-width="4"></path>
                        <path d="M25.5,46.3 C30.7,46.3 35.5,43.3 35.5,39.5 C35.5,37.2 33.7,35.4 31.4,35.4 C31.2,35.4 30.9,35.4 30.7,35.5" id="Shape" stroke-width="4"></path>
                    </g>
                    <g id="Group" transform="translate(125.000000, 123.000000)" stroke-width="2">
                        <rect id="Rectangle-path" x="6" y="16.2" width="64" height="5"></rect>
                        <path d="M64,11.2 C64,11.2 2.5,11.4 0,10.8 L0,16.2 L64,16.2 L64,11.2 Z" id="Shape"></path>
                        <path d="M67.9,6.3 C61.2,7.1 4,3.8 4,3.8 L3.8,7.8 L67.7,11.1 L67.9,6.3 Z" id="Shape"></path>
                        <path d="M4,3.8 C7.1,4 6.5,0.7 4.2,0.4 C-0.2,5.6510352e-14 -1.3,9.3 7.5,9.7 C17.8,10.2 44.4,11.2 44.4,11.2" id="Shape"></path>
                        <path d="M66.7,4.4 C64.5,5.3 56.6,6.4 50.3,6.1" id="Shape"></path>
                    </g>
                    <path d="M314.2,104.7 L320.4,104.7" id="Shape" stroke-width="2"></path>
                </g>
            </g>
            <g id="bean_bag" transform="translate(0.000000, 224.000000)">
                <g id="beanbag_color" transform="translate(7.000000, 1.000000)" fill="#8DBF75" fill-rule="nonzero">
                    <g id="XMLID_1_">
                        <g id="Group">
                            <path d="M145.8,144.2 C145.8,142.8 145.6,141.4 145.4,140 C145.1,137.8 144.7,135.6 144.1,133.4 C137.8,110.1 115.3,88.7 90.3,76.3 C81.4,71.9 74.2,66.8 68,61.4 C65.4,59.1 63.1,56.8 60.9,54.5 C51.7,44.7 45.3,34.4 39,25.4 C37.8,23.6 36.6,21.9 35.3,20.2 C30.4,13.4 25.2,7.7 18.8,4 C24.8,1.4 32.3,-0.4 39.8,0.9 C54.3,3.4 77.8,34.4 100.8,58.9 C123.8,83.4 183.3,98.4 179.8,132.8 C177.2,152.7 167.8,167 154.7,176.7 L134.4,176.7 C142.9,166 146.3,155.1 145.8,144.2 Z" id="Shape"></path>
                            <path d="M145.8,144.2 C146.3,155 142.9,166 134.4,176.5 L124.2,176.5 L41.4,176.5 L35,176.5 L24.8,176.5 C-10.2,151.3 2.8,61.2 4.8,48.5 C4.9,47.6 5,46.7 5,45.8 C5,45.8 5,45.8 5,45.8 C5.1,43.8 4.9,41.8 4.7,39.8 C3.4,29.4 -0.8,18.7 6.8,11.4 C8.7,9.5 13.2,6.4 18.8,3.9 C25.3,7.6 30.4,13.3 35.3,20.1 C36.5,21.8 37.8,23.5 39,25.3 C45.2,34.4 51.7,44.7 60.9,54.4 C63.1,56.8 65.5,59.1 68,61.3 C74.2,66.7 81.5,71.8 90.3,76.2 C115.2,88.6 137.8,110 144.1,133.3 C144.7,135.5 145.1,137.7 145.4,139.9 C145.7,141.4 145.8,142.8 145.8,144.2 Z" id="Shape"></path>
                        </g>
                    </g>
                </g>
                <g id="shadows" transform="translate(6.000000, 0.000000)" fill-rule="nonzero">
                    <path d="M3.4,24.9 C12.5,45 23.3,60.9 43.7,54.7 C-33.3,169.4 156.9,193.7 180.3,130.1 C185.6,154 157.1,177.6 157.1,177.6 L23.4,177.6 C23.4,177.6 -8.9,150.2 3.1,64.1 C7,39.5 3.4,24.9 3.4,24.9 Z" id="Shape" fill="#000000" opacity="0.1"></path>
                    <path d="M6,44.5 C11,52.5 23.6,62.5 43.6,54.6 C34.1,69.9 13,70 3,64 C4.7,57.2 6,44.5 6,44.5 Z" id="Shape" fill="#000000" opacity="0.1"></path>
                    <path d="M3,21.1 C7.7,12.4 33,0.7 50.5,13 C64.5,23 99.2,82.3 154.9,95.4 C116.8,76.1 79.6,37.3 71.6,26.3 C55.2,10.1 40.3,-8.1 17.4,6 C7.8,12.4 4.1,15.5 3,21.1 Z" id="Shape" fill="#FFFFFF" opacity="0.25"></path>
                    <path d="M34.5,20.5 C42.3,36.6 56.7,56.2 67.6,66.5 C78.5,76.8 124.4,92.4 142.7,130 C130,97.6 101.5,84.8 96.1,81.1 C90.7,77.4 69.7,68.6 57.5,51.6 C45.3,34.6 34.5,20.5 34.5,20.5 Z" id="Shape" fill="#FFFFFF" opacity="0.25"></path>
                    <path d="M1.8,104.2 C5,137.8 13.1,154 17.5,135.6 C19.3,147.2 29.5,157.1 32,149 C40.1,168.8 121,176.7 132.8,164.3 C133.6,166.8 139.1,169.6 144.6,160.9 C144.2,169.3 166.4,169.2 173.8,156.4 C163.6,173.3 156.9,177.5 156.9,177.5 L25.8,177.5 C25.8,177.5 2.3,166 1.8,104.2 Z" id="Shape" fill="#000000" opacity="0.1"></path>
                    <ellipse id="Oval" fill="#FFFFFF" opacity="0.25" transform="translate(152.038100, 100.976200) rotate(-57.574948) translate(-152.038100, -100.976200) " cx="152.0381" cy="100.9762" rx="2.60001982" ry="6.4000488"></ellipse>
                    <ellipse id="Oval" fill="#FFFFFF" opacity="0.25" transform="translate(140.302400, 95.424550) rotate(-57.574948) translate(-140.302400, -95.424550) " cx="140.3024" cy="95.42455" rx="1.70001296" ry="4.0000305"></ellipse>
                </g>
                <g id="beanbag" transform="translate(0.000000, 1.000000)" stroke="#333333" stroke-linecap="round" stroke-linejoin="round">
                    <g id="Group">
                        <path d="M31.8,176.5 L161.7,176.5 C174.8,166.8 184.2,152.5 186.8,132.6 C190.3,98.2 130.8,83.1 107.8,58.7 C84.8,34.3 61.3,3.3 46.8,0.8 C32.3,-1.7 17.8,7.5 13.8,11.4 C4.1,20.9 13.8,35.8 11.8,48.6 C9.8,61.3 -3.2,151.3 31.8,176.5 Z" id="Shape" stroke-width="4"></path>
                        <path d="M25.8,3.9 C48.7,17 54.3,55 97.3,76.3 C137.4,96.2 171.4,139.5 141.4,176.5" id="Shape" stroke-width="2"></path>
                        <path d="M40.2,21.5 L44.7,18.6" id="Shape" stroke-width="2"></path>
                        <path d="M43.4,26.8 L48.7,23.9" id="Shape" stroke-width="2"></path>
                        <path d="M74.3,64.7 L75.8,57.7" id="Shape" stroke-width="2"></path>
                        <path d="M71.7,53.7 L65.2,55" id="Shape" stroke-width="2"></path>
                        <path d="M150.3,144.2 L156.5,144.2" id="Shape" stroke-width="2"></path>
                        <path d="M148.9,140 L156.5,140" id="Shape" stroke-width="2"></path>
                        <path d="M147.5,134.6 L155.3,132" id="Shape" stroke-width="2"></path>
                        <path d="M23.5,134.6 C23.5,150 35,171.5 42,176.5" id="Shape" stroke-width="2"></path>
                        <path d="M38,148 C38,157.2 44,175.1 48.3,176.5" id="Shape" stroke-width="2"></path>
                        <path d="M138.8,163.3 C137.1,169.3 133.8,174.4 131.1,176.5" id="Shape" stroke-width="2"></path>
                        <path d="M11.7,39.8 C14.8,49.1 21,52.7 26.5,55" id="Shape" stroke-width="2"></path>
                        <path d="M12,45.8 C12.6,51.6 14.9,56.1 19.1,57.6" id="Shape" stroke-width="2"></path>
                        <path d="M31.8,176.5 L11.8,176.5" id="Shape" stroke-width="4"></path>
                        <path d="M4.8,176.5 L0.8,176.5" id="Shape" stroke-width="4"></path>
                    </g>
                    <path d="M24,128.3 L24.3,124" id="Shape" stroke-width="2"></path>
                </g>
            </g>
        </g>
    </g>
</svg>