<svg width="470" height="406" viewBox="0 0 470 406" xmlns="http://www.w3.org/2000/svg"><g fill="none" fill-rule="evenodd"><g fill="#FCFCFC" fill-rule="nonzero"><path d="M347.1 217.4v10.8h-220v-10.8h215.7zM342.8 1.7v215.7H239.2V1.7h103.6zm-8.7 207.1V10.3h-86.3v198.5h86.3z"/><path d="M334.1 112.8v96h-86.2v-96h6.4v89.5h33.5v-89.5h6.4v89.5h33.5v-89.5zm0-102.5v102.5h-86.3V10.3h86.3zm-6.4 96V16.8h-33.4v89.5h33.4zm-39.9 0V16.8h-33.4v89.5h33.4zM239.2 1.7v215.7h-4.3V1.7z"/><path d="M234.9 1.7v215.7H131.4V1.7h103.5zm-8.6 207.1V10.3H140v198.5h86.3z"/><path d="M226.3 112.8v96H140v-96h6.5v89.5h33.4v-89.5h6.5v89.5h33.4v-89.5zm0-102.5v102.5H140V10.3h86.3zm-6.5 96V16.8h-33.4v89.5h33.4zm-39.9 0V16.8h-33.4v89.5h33.4z"/></g><g stroke="#EFEFEF" stroke-linecap="round" stroke-linejoin="round" stroke-width="3"><path d="M127.1 217.4h220v10.8h-220zM342.8 1.7v215.7H131.4V1.7h211.4m-102.6 0v215.7m-6.3 0V1.7"/><path d="M140 10.3h86.3v198.4H140zm79.8 96h-33.4m-6.5 0h-33.4m-6.5 6.5h86.3m-46.4 89.5v-89.5m0-6.5V16.8m6.5 185.5v-89.5m0-6.5V16.8"/><path d="M186.4 16.8h33.4v89.5m-73.3 0V16.8h33.4m-33.4 96v89.5h33.4m39.9-89.5v89.5h-33.4m61.5-192h86.3v198.4h-86.3zm79.8 96h-33.5m-6.4 0h-33.5m-6.4 6.5h86.2m-46.3 89.5v-89.5m0-6.5V16.8m6.4 185.5v-89.5m0-6.5V16.8"/><path d="M294.2 16.8h33.5v89.5m-73.4 0V16.8h33.5m-33.5 96v89.5h33.5m39.9-89.5v89.5h-33.5"/></g><g fill="#F7F7F7" fill-rule="nonzero"><path d="M457.5 295.9v.1c-21.1 4.5-30.8 38-40.3 52.3h-4.3c2.9-6 4.6-13 5.7-20.7 1.5-4.1 3.3-7.7 5.4-10.9 8.7-13.5 21.8-19.5 33.5-20.8zm-13.6 52.5v8.9h-71.7v-8.9h45z"/><path d="M443.8 246.9l.1.1c-9.2 13.2-21.8 46.7-19.9 69.8-2.1 3.2-3.9 6.8-5.4 10.9 1-7.4 1.4-15.4 1.7-24.1h.2c1.5-24.5 14.9-46.6 23.3-56.7zm-2.9 110.4l-6.6 39.5h-52.6l-6.5-39.5zm-6.6 39.5l-.9 5.4h-50.8l-.9-5.4z"/><path d="M408 277.6c2.6-31.8 21-67.5 29.6-80.3-17.1 39.1-16.4 76.2-17.3 106.3-.3 8.6-.7 16.7-1.7 24.1-1.1 7.7-2.8 14.7-5.7 20.7H408c1.3-11.4 2-39.7 0-70.8 0 .1 0 .1 0 0z"/><path d="M408 277.7c2 31 1.3 59.3 0 70.7h-3.1c-5.9-13.4-7.9-37.2-9.2-63.1v-.1c-2.1-41.4-2.1-88.4-12.1-108.2 15.2 19.9 21.9 62.4 24.4 100.7z"/><path d="M404.9 348.4h-4.7c-28-32.1-2-77-29-143.9 12.6 17.8 21.8 49.2 24.5 80.6v.1c1.3 26 3.4 49.8 9.2 63.2z"/></g><g fill-rule="nonzero"><g fill="#EFEFEF"><path d="M375.7 357.4h64.5v4.3h-64.5zm58.7-92.1l1.3-5.9c-6.7 8.2-14 29.1-15.3 40l-.7 24.9 4.8-8.3c-3.8-15.6 9.9-50.7 9.9-50.7zm-29.7 83.2c-1.4-3.1-2.9-9.3-4.1-14.7 1.9 7.8 4.1 14.7 4.1 14.7h3.2c1.3-4.5 1.3-32.2 1.3-32.2-2.6 18.6-10.3 7.2-11.3 0-.1 2.2.3 5.1.8 8.3-2.9 13-10 1.5-12.5-18.4-1.4 26.5 13.9 42.2 13.9 42.2h4.6v.1z"/><path d="M412.3 348.5l4.8-.1L427 330c-2.5 4.9-7.9 6-9.9 5 1.4-6.6 1.4-11.9 1.4-11.9-.8 8.7-8.4 12.3-9.2 7.5l-.1 17.9h3.1z"/></g><path d="M372.2 351.5h8.3v5.5l20 .4-.1-5.9h43.5v-3.1h-71.7zm17.4 50.7h13.7l-.9-44.8h-19.8zm-4.5-115.7l.9 25.7c1.7-4.4 1.5-24.7 4.6-25.7 2.8-.9 5.5 10.2 5.5 10.2l-2.1-25.5c-5.6 21.1-9.6-7.4-10.7-16.8l1.6 20 .2 12.1zm19.6-46.6c-7.8-48.3-21.3-63.3-21.3-63.3 11 20.1 12.7 112.3 12.7 112.3 5.4-30 .8-62.9 8.6-49zm28.2-33.7c-5 5.4-29 55.5-24.4 80.4 4.6 24.9-1.9-26.8 24.4-80.4zm-14.3 126c2-5.6 15.6-30 21.4-24l12.8-11.5c.1 0-30.4 6.7-34.2 35.5z" fill="#FFF"/></g><g stroke="#E8E8E8" stroke-linecap="round" stroke-linejoin="round"><path d="M371.2 204.5c29 52.9 9.7 112.3 31.5 143.9m54.8-52.3c-30.9 9.3-27.3 26.1-43.5 52.3m-7.5 0c-3.2-16.3-3.9-136.9-20.8-168.5m24.8 168.5c14.7-46.9-7-81.5 25.1-147.9m-30.4 134.2c-.4-6.7 4.1-20.8 4.1-20.8m-5.1 3.8c-.5-9-7.5-15.7-7.5-15.7m6.6 0c-.3-5.4 5.1-16.8 5.1-16.8m-6 1.3c-.4-6.6-7.3-15.1-7.3-15.1m6.1-2.6c-.5-6.9 4.7-15.2 4.7-15.2m-6 0c-.6-6.1-6-9.6-6-9.6m11.7 96.5c-.4-4.7-6.1-12.8-6.1-12.8m-.8-86.4c-.8-5.9 2.7-16.5 2.7-16.5m-4.7-1.2c-.8-4.3-4.9-9.3-4.9-9.3m3.5 117.9c-1.6-6.6 2.6-17.1 2.6-17.1m-4.9 7.1c-.9-6.3-6.9-11.8-6.9-11.8m11.8 29.1c-1.6-4.3-6.6-5.5-6.6-5.5m-.4-29.6c-.3-3.9 4.2-14.2 5-15.5m-5.9.8c-.3-5.4-4.8-9.4-4.8-9.4m3.7-7.4c-.3-4.1 3.5-11.7 3.5-11.7m-4.9-1.8c-.5-4.1-4.2-7-4.2-7m2.8-2.9c-.7-4.1 1.4-8.2 1.4-8.2m25.2 99.2c1.1-5.2-3.5-14.8-3.5-14.8m5.6 3.3c.5-4.1 4.7-10.2 4.7-10.2m-3.4-2.4c.2-4.4-5-13.2-6.9-14.3m7.2 2.3c0-3.9 4-10.8 4-10.8m-4-.7c.1-5-6.4-15.1-8.3-16.4m8.3 4.6c.3-5 5-11.4 5-11.4m-4.4 0c.4-5-2.6-13.4-4.7-15.3m5.9 3.2c.4-3 4.2-8.7 5.4-8.8m-3.5-3.4c.6-2.7.2-10.3-1.2-11m4.6-2.8c.5-1.8 3.8-3.4 3.8-3.4m-9.4 113.3c.9-1.8 5.6-4.7 5.6-4.7m-1.9-2.7c1-2.3 1.5-11.5 0-13.3m3.8 4.9c1.1-2.5 5.9-5.2 6.5-5.3m-1.9-4c.8-1.4 1.1-8.2 1.1-8.2m3.3 1.7c1.2-1.3 6.5-2.7 6.5-2.7" stroke-width="1.5"/><path d="M408 348.4c2.9-26.1 3.1-141.2-26.7-174.3m2.3 2.8c16.3 32.2 6.2 136.6 21.4 171.5m7.9 0c15.3-31.7-2.5-88.9 24.7-151.1m-66.4 7.2c27 66.9 1 111.8 29 143.9m17 0c9.5-14.3 19.3-47.8 40.3-52.3m10.2 0c-15.9-2.2-39.2 4.9-49.1 31.6m25.3-80.7c-9.2 13.2-21.8 46.7-19.9 69.8m-50.3 85.4h64.2m-65.7-53.8h71.7v9h-71.7zm68.7 9l-7.5 44.8m-58.2-44.8l7.4 44.8M408 277.7c3-36.9 27.2-79.1 32.9-84.7m-45.2 92.3c-3-34-13.4-68-27.6-84.8m79.4 42.4c-7.3 6.9-25.2 32.1-27 60.7m28.3 98.6h-4.4" stroke-width="3"/><path d="M381.7 396.8h52.6" stroke-width="1.5"/></g><g fill-rule="nonzero"><path fill="#775B44" d="M396.4 289v10h-320v-10z"/><path d="M357.7 270v2.4c-.1 4.4-2.1 8.3-5.2 10.9-.7.6-1.5 1.2-2.3 1.6v2h-15v-2c-4.5-2.6-7.5-7.4-7.5-13v-2h30v.1z" fill="#DE5B5D"/><path d="M334.9 402.4H323s-27.1-47.9-27.6-61.7v-.6c.2-8 9.1-25.4 17.9-41.1h15.2c-7.7 16.1-15.8 34.7-15.8 41.4.1 12.2 17.2 52.7 22.2 62z" fill="#775B44"/><path d="M316.9 280.9v3.4s-1.5 4.6-14.9 4.6H171.8c-13.4 0-14.9-4.6-14.9-4.6v-3.4h160z" fill="#DDD"/><path d="M305.3 195.2V281h-136v-85.8c0-2.4 1.9-4.2 4.2-4.2H301c2.4-.1 4.3 1.8 4.3 4.2zm-8 77.7v-74h-120v74h120z" fill="#DDD"/><path fill="#444" d="M177.3 198.9h120v74h-120z"/><path d="M295.5 340.7v3.6H177.3v-10h118.2v6.4z" fill="#775B44"/><path fill="#DDD" d="M271 329.2v5h-64v-5h58zm-2.1-9.9l-.2 4.7-3.7-.2-60.2-3.1.2-4h.1c2.1.1 27.8 1.6 46.1 2.3h.3c8.5.4 15.4.5 17.4.3z"/><path d="M265 323.9v.3h-19.6s-26.7-.9-36.9-1.5c-8.8-.5-7.7-9.8-3.3-9.3 2.3.2 2.9 3.4 0 3.4h-.1l-.2 4 60.1 3.1z" fill="#DDD"/><path d="M265 324.2v5h-64v-5.4c1.5.4 26.1.4 44.4.4H265z" fill="#DDD"/><path d="M159.4 299c8.9 15.9 17.9 33.4 17.9 41.4 0 13.4-27.6 62-27.6 62H138c4.9-9.4 22-49.8 22-62 0-6.7-8.1-25.3-15.8-41.4h15.2z" fill="#775B44"/></g><g fill-rule="nonzero"><path fill="#FFF" opacity=".5" d="M327.7 270h29.8v4.4h-29.8z"/><path fill="#FFF" d="M169.3 190h136v5.2h-136z"/><path fill="#FFF" d="M301.2 192.6h4.1V280h-4.1z"/><path fill="#000" opacity=".25" d="M297.3 198.9H178.5v3.4H294v69.9h2.8v-69.9h.5z"/><path fill="#FFF" d="M156.4 281.5h160v3.4h-160z"/><path fill="#000" opacity=".25" d="M145.5 300.2h16v6h-16zm165.5-.3h16v6h-16z"/><path fill="#FFF" opacity=".25" d="M76.4 289.5h321.2v3.9H76.4z"/><path fill="#000" opacity=".25" d="M201 323.8h64v5.4h-64z"/><path fill="#FFF" opacity=".25" d="M177.3 333.5h118.2v5.2H177.3z"/><path d="M143.8 386.8c1.5 8.2 13.7 3.2 21.1-13.1-8.6 19.1-15.1 28.7-15.1 28.7H138l5.8-15.6zm185.3 0c-1.5 8.2-13.7 3.2-21.1-13.1 8.6 19.1 15.1 28.7 15.1 28.7h11.8l-5.8-15.6z" fill="#000" opacity=".25"/><path fill="#FFF" opacity=".15" d="M219.5 202.3L176.8 245v11l53.7-53.7zm-42.2 61.4l61.6-61.6h45.4l-72 72h-35z"/></g><g stroke="#333" stroke-linecap="round" stroke-linejoin="round"><g stroke-width="4"><path d="M169.3 280.9v-85.8c0-2.3 1.9-4.2 4.2-4.2H301c2.3 0 4.2 1.9 4.2 4.2v85.8"/><path d="M177.3 198.9h120v74h-120zm-5.5 90c-13.4 0-14.9-4.6-14.9-4.6v-3.4h160v3.4s-1.5 4.6-14.9 4.6H171.8"/></g><g stroke-width="4"><path d="M76.4 289h320v10h-320zm252.2 10c-7.7 16.1-15.8 34.7-15.8 41.4 0 12.2 17.1 52.7 22.1 62"/><path d="M313.4 299c-8.9 15.9-17.9 33.4-17.9 41.4 0 13.4 27.6 62 27.6 62m-145.8-68h118.2v10H177.3zM144.2 299c7.7 16.1 15.8 34.7 15.8 41.4 0 12.2-17.1 52.7-22 62"/><path d="M159.4 299c8.9 15.9 17.9 33.4 17.9 41.4 0 13.4-27.6 62-27.6 62m-72.8 0h339"/></g><path d="M351.2 245.4v.6c0 4-2.8 7.4-6.5 8.4m1.6-16.3c-1.1-.6-2.4-.9-3.8-.9m7.2 3.9l-.1-.1M338 258.9c-.5.7-.8 1.5-.8 2.4 0 1.6.9 3 2.3 3.6" stroke-width="2" opacity=".5"/><path d="M357.7 272c0 5.6-3 10.4-7.5 13v2h-15v-2c-4.5-2.6-7.5-7.4-7.5-13v-2h30v2z" stroke-width="4"/><path d="M352.5 283.3c5.2 0 10-3 10-6.8 0-2.3-1.8-4.1-4.1-4.1-.2 0-.5 0-.7.1" stroke-width="4"/><g stroke-width="2"><path d="M207 329.2h64v5h-64zm58-5s-61.5.2-64-.4v5.4h64v-5zm3.9-4.9c-6.7.8-63.9-2.5-63.9-2.5l-.2 4 63.9 3.3.2-4.8z"/><path d="M205 316.8c3.1.2 2.5-3.1.2-3.4-4.4-.4-5.5 8.9 3.3 9.3 10.3.5 36.9 1.5 36.9 1.5m22.3-6.8c-2.2.9-10.1 2-16.4 1.7"/></g><path d="M390.2 294.7h6.2" stroke-width="2"/></g><g fill="#8DBF75" fill-rule="nonzero"><path d="M154.8 370.2c0-1.4-.2-2.8-.4-4.2-.3-2.2-.7-4.4-1.3-6.6-6.3-23.3-28.8-44.7-53.8-57.1-8.9-4.4-16.1-9.5-22.3-14.9-2.6-2.3-4.9-4.6-7.1-6.9-9.2-9.8-15.6-20.1-21.9-29.1-1.2-1.8-2.4-3.5-3.7-5.2-4.9-6.8-10.1-12.5-16.5-16.2 6-2.6 13.5-4.4 21-3.1 14.5 2.5 38 33.5 61 58s82.5 39.5 79 73.9c-2.6 19.9-12 34.2-25.1 43.9h-20.3c8.5-10.7 11.9-21.6 11.4-32.5z"/><path d="M154.8 370.2c.5 10.8-2.9 21.8-11.4 32.3H33.8c-35-25.2-22-115.3-20-128 .1-.9.2-1.8.2-2.7.1-2-.1-4-.3-6-1.3-10.4-5.5-21.1 2.1-28.4 1.9-1.9 6.4-5 12-7.5 6.5 3.7 11.6 9.4 16.5 16.2 1.2 1.7 2.5 3.4 3.7 5.2 6.2 9.1 12.7 19.4 21.9 29.1 2.2 2.4 4.6 4.7 7.1 6.9 6.2 5.4 13.5 10.5 22.3 14.9 24.9 12.4 47.5 33.8 53.8 57.1.6 2.2 1 4.4 1.3 6.6.3 1.5.4 2.9.4 4.3z"/></g><g transform="translate(8 225)" fill-rule="nonzero"><path d="M3.4 24.9c9.1 20.1 19.9 36 40.3 29.8-77 114.7 113.2 139 136.6 75.4 5.3 23.9-23.2 47.5-23.2 47.5H23.4S-8.9 150.2 3.1 64.1c3.9-24.6.3-39.2.3-39.2z" fill="#000" opacity=".1"/><path d="M6 44.5c5 8 17.6 18 37.6 10.1C34.1 69.9 13 70 3 64c1.7-6.8 3-19.5 3-19.5z" fill="#000" opacity=".1"/><path d="M3 21.1C7.7 12.4 33 .7 50.5 13c14 10 48.7 69.3 104.4 82.4-38.1-19.3-75.3-58.1-83.3-69.1C55.2 10.1 40.3-8.1 17.4 6 7.8 12.4 4.1 15.5 3 21.1z" fill="#FFF" opacity=".25"/><path d="M34.5 20.5c7.8 16.1 22.2 35.7 33.1 46 10.9 10.3 56.8 25.9 75.1 63.5-12.7-32.4-41.2-45.2-46.6-48.9-5.4-3.7-26.4-12.5-38.6-29.5-12.2-17-23-31.1-23-31.1z" fill="#FFF" opacity=".25"/><path d="M1.8 104.2C5 137.8 13.1 154 17.5 135.6c1.8 11.6 12 21.5 14.5 13.4 8.1 19.8 89 27.7 100.8 15.3.8 2.5 6.3 5.3 11.8-3.4-.4 8.4 21.8 8.3 29.2-4.5-10.2 16.9-16.9 21.1-16.9 21.1H25.8S2.3 166 1.8 104.2z" fill="#000" opacity=".1"/><ellipse fill="#FFF" opacity=".25" transform="rotate(-57.575 152.038 100.976)" cx="152.038" cy="100.976" rx="2.6" ry="6.4"/><ellipse fill="#FFF" opacity=".25" transform="rotate(-57.575 140.302 95.425)" cx="140.302" cy="95.425" rx="1.7" ry="4"/></g><g stroke="#333" stroke-linecap="round" stroke-linejoin="round"><path d="M33.8 402.5h129.9c13.1-9.7 22.5-24 25.1-43.9 3.5-34.4-56-49.5-79-73.9-23-24.4-46.5-55.4-61-57.9s-29 6.7-33 10.6c-9.7 9.5 0 24.4-2 37.2-2 12.7-15 102.7 20 127.9z" stroke-width="4"/><path d="M27.8 229.9C50.7 243 56.3 281 99.3 302.3c40.1 19.9 74.1 63.2 44.1 100.2m-101.2-155l4.5-2.9m-1.3 8.2l5.3-2.9m25.6 40.8l1.5-7m-4.1-4l-6.5 1.3m85.1 89.2h6.2m-7.6-4.2h7.6m-9-5.4l7.8-2.6m-131.8 2.6c0 15.4 11.5 36.9 18.5 41.9M40 374c0 9.2 6 27.1 10.3 28.5m90.5-13.2c-1.7 6-5 11.1-7.7 13.2M13.7 265.8c3.1 9.3 9.3 12.9 14.8 15.2M14 271.8c.6 5.8 2.9 10.3 7.1 11.8" stroke-width="2"/><path d="M33.8 402.5h-20m-7 0h-4" stroke-width="4"/><path d="M26 354.3l.3-4.3" stroke-width="2"/></g></g></svg>